Coordinates
version=1
nRows=8
nColumns=36
inDegrees=yes

Units are S.I. units (second, meters, Newtons, ...)
Angles are in degrees.

endheader
time	pelvis_tilt	pelvis_list	pelvis_rotation	pelvis_tx	pelvis_ty	pelvis_tz	hip_flexion_r	hip_adduction_r	hip_rotation_r	knee_angle_r	ankle_angle_r	subtalar_angle_r	hip_flexion_l	hip_adduction_l	hip_rotation_l	knee_angle_l	ankle_angle_l	subtalar_angle_l	lumbar_extension	lumbar_bending	lumbar_rotation	arm_flex_r	arm_add_r	arm_rot_r	elbow_flex_r	pro_sup_r	wrist_flex_r	wrist_dev_r	arm_flex_l	arm_add_l	arm_rot_l	elbow_flex_l	pro_sup_l	wrist_flex_l	wrist_dev_l
      2.25000000	      1.43439938	     -1.42100809	      3.34946108	      0.35416105	      0.92149142	     -0.15274147	     -2.10539634	      7.41586462	     -5.17059202	    -15.07368600	     10.33406512	     -1.97910195	     24.09498367	      0.76988102	      3.22996298	    -45.44708865	      3.69514724	     -2.43305232	     -7.88069690	      4.67820444	      1.53256985	     -3.12398862	    -23.19793392	      8.20133795	     31.69569333	     86.51662706	      0.00000000	      0.00000000	     -5.68569803	    -14.87215649	     15.65099510	     21.75379015	     86.51662706	      0.00000000	      0.00000000
      2.26000000	      1.54632689	     -1.38207589	      3.29155916	      0.36556089	      0.92051223	     -0.15207725	     -3.46636668	      7.45619056	     -5.30520740	    -14.27051343	     10.79425932	     -1.36138600	     24.56340609	      0.90643679	      3.08170978	    -42.71056102	      3.54974664	     -3.49732264	     -8.13197045	      4.63918509	      1.89837404	     -2.76094627	    -23.49019094	      8.09968479	     32.27228162	     86.51662706	      0.00000000	      0.00000000	     -5.85555580	    -14.78615355	     15.44395340	     21.56005997	     86.51662706	      0.00000000	      0.00000000
      2.27000000	      1.66703263	     -1.36602083	      3.24954659	      0.37703543	      0.91929461	     -0.15147136	     -4.82020186	      7.51533315	     -5.46514065	    -13.50954187	     11.25648117	     -0.72300647	     24.94622421	      1.03243241	      2.97155922	    -39.87888542	      3.42944672	     -4.52681173	     -8.39011194	      4.63140892	      2.22837855	     -2.39865471	    -23.77524295	      7.99550497	     32.82321177	     86.51662706	      0.00000000	      0.00000000	     -6.01466165	    -14.68736075	     15.26765594	     21.34038223	     86.51662706	      0.00000000	      0.00000000
      2.28000000	      1.78775900	     -1.36884530	      3.21950313	      0.38858938	      0.91784352	     -0.15093016	     -6.14178945	      7.59100165	     -5.62295257	    -12.81557268	     11.71854161	     -0.09805499	     25.25725322	      1.14881418	      2.89689944	    -36.97293406	      3.36800484	     -5.42735715	     -8.64328546	      4.65035514	      2.52793435	     -2.03792268	    -24.05164376	      7.89676593	     33.34120707	     86.51662706	      0.00000000	      0.00000000	     -6.16082628	    -14.57531118	     15.12641825	     21.09156014	     86.51662706	      0.00000000	      0.00000000
      2.29000000	      1.89887790	     -1.38883650	      3.19646988	      0.40022484	      0.91617891	     -0.15045728	     -7.40708429	      7.68140887	     -5.75449120	    -12.21003997	     12.17865635	      0.48379699	     25.51184708	      1.25242623	      2.85336191	    -34.02028012	      3.38061308	     -6.09929629	     -8.87828414	      4.69269101	      2.80428118	     -1.67919465	    -24.31813664	      7.80994212	     33.81924526	     86.51662706	      0.00000000	      0.00000000	     -6.29156285	    -14.44987068	     15.02448024	     20.81041175	     86.51662706	      0.00000000	      0.00000000
      2.30000000	      1.98978385	     -1.42659104	      3.17370796	      0.41193337	      0.91432227	     -0.15004453	     -8.59673508	      7.78537293	     -5.84228535	    -11.70854770	     12.63500326	      1.00159395	     25.72645654	      1.33687390	      2.83167724	    -31.05827892	      3.46473391	     -6.44919026	     -9.08221582	      4.75604733	      3.06576435	     -1.32277677	    -24.57368303	      7.73947051	     34.25130695	     86.51662706	      0.00000000	      0.00000000	     -6.40429907	    -14.31139037	     14.96599422	     20.49463413	     86.51662706	      0.00000000	      0.00000000
      2.31000000	      2.05026598	     -1.48390782	      3.14258110	      0.42370220	      0.91229639	     -0.14967120	     -9.69808071	      7.90169405	     -5.87780239	    -11.32035598	     13.08497272	      1.44607502	     25.91866981	      1.39460386	      2.81468889	    -28.13596702	      3.60511758	     -6.40248700	     -9.24465245	      4.83858134	      3.32103685	     -0.96930925	    -24.81727805	      7.68740433	     34.63319091	     86.51662706	      0.00000000	      0.00000000	     -6.49650245	    -14.16077680	     14.95481087	     20.14369325	     86.51662706	      0.00000000	      0.00000000
      2.32000000	      2.07314766	     -1.56183807	      3.09350612	      0.43552432	      0.91013188	     -0.14931891	    -10.70527797	      8.02802565	     -5.86197798	    -11.04968292	     13.52434598	      1.82091774	     26.10695780	      1.41979893	      2.77633073	    -25.31411408	      3.78153842	     -5.91518680	     -9.35968153	      4.93836261	      3.57834373	     -0.62051106	    -25.04752621	      7.65331237	     34.96320589	     86.51662706	      0.00000000	      0.00000000	     -6.56590608	    -13.99959350	     14.99411229	     19.75952843	     86.51662706	      0.00000000	      0.00000000
